<svg width="66" height="66" viewBox="0 0 66 66" fill="none" xmlns="http://www.w3.org/2000/svg">
<rect x="0.5" y="0.142853" width="65" height="65" rx="8" fill="#FAFAFA"/>
<path d="M47.9632 44.1429H18.3339C17.5825 44.1414 16.8622 43.8118 16.331 43.2263C15.7998 42.6407 15.501 41.8471 15.5 41.0192V22.2679C15.5007 21.4398 15.7994 20.6457 16.3306 20.0599C16.8618 19.4741 17.5822 19.1443 18.3339 19.1429H47.9632C48.7146 19.1443 49.4348 19.4739 49.966 20.0594C50.4972 20.645 50.7961 21.4386 50.7971 22.2665V41.0179C50.7979 41.4283 50.7252 41.8348 50.5831 42.2142C50.441 42.5935 50.2323 42.9383 49.9691 43.2286C49.7058 43.5189 49.3931 43.7492 49.0489 43.906C48.7047 44.0629 48.3357 44.1434 47.9632 44.1429Z" fill="#413EE0"/>
<path d="M42.4594 35.8095H20.0558C19.8504 35.8084 19.6538 35.7178 19.5087 35.5575C19.3637 35.3973 19.2822 35.1803 19.2818 34.954V31.1095C19.2818 30.647 19.6247 30.254 20.0558 30.254H42.4594C42.8779 30.254 43.2334 30.6331 43.2334 31.1095V34.9679C43.2329 35.0792 43.2125 35.1893 43.1733 35.2919C43.1341 35.3945 43.0769 35.4875 43.005 35.5657C42.9331 35.6439 42.8479 35.7057 42.7543 35.7475C42.6606 35.7894 42.5604 35.8104 42.4594 35.8095Z" fill="#F4F4F4"/>
<path d="M44.939 41.3651H47.2006C47.342 41.366 47.4822 41.336 47.6131 41.2768C47.7439 41.2176 47.8628 41.1304 47.9628 41.0202C48.0628 40.91 48.142 40.779 48.1957 40.6348C48.2495 40.4907 48.2767 40.3362 48.2759 40.1804V37.6887C48.2767 37.5329 48.2495 37.3784 48.1957 37.2342C48.142 37.0901 48.0628 36.9591 47.9628 36.8489C47.8628 36.7387 47.7439 36.6515 47.6131 36.5923C47.4822 36.5331 47.342 36.5031 47.2006 36.504H44.939C44.7976 36.5031 44.6574 36.5331 44.5266 36.5923C44.3957 36.6515 44.2768 36.7387 44.1768 36.8489C44.0768 36.9591 43.9976 37.0901 43.9439 37.2342C43.8901 37.3784 43.8629 37.5329 43.8637 37.6887V40.1804C43.866 40.4938 43.9801 40.7937 44.1812 41.0153C44.3824 41.2369 44.6546 41.3626 44.939 41.3651Z" fill="#EC9109"/>
<path d="M50.7971 23.3095H15.5V25.5822H50.7971V23.3095Z" fill="#D7D3FD"/>
<path d="M20.5424 33.0317C20.5424 32.8476 20.6088 32.6709 20.7271 32.5407C20.8453 32.4105 21.0056 32.3373 21.1727 32.3373H35.0395C35.2066 32.3373 35.3669 32.4105 35.4851 32.5407C35.6034 32.6709 35.6698 32.8476 35.6698 33.0317C35.6698 33.2159 35.6034 33.3926 35.4851 33.5228C35.3669 33.653 35.2066 33.7262 35.0395 33.7262H21.1727C21.0056 33.7262 20.8453 33.653 20.7271 33.5228C20.6088 33.3926 20.5424 33.2159 20.5424 33.0317Z" fill="#EC9109"/>
</svg>
