<svg width="39" height="12" viewBox="0 0 39 12" fill="none" xmlns="http://www.w3.org/2000/svg">
<path d="M9.43081 2.2646V9.34736H11.0347V7.0658L11.9541 6.1631L14.1506 9.34736H16.1631L13.037 5.06199L15.8873 2.2646H13.8849L11.0347 5.20087V2.2646H9.43081Z" fill="#683BF6"/>
<path d="M17.9374 6.78805C17.9374 6.58304 17.9578 6.38133 17.9987 6.18294C18.0396 5.98454 18.1077 5.80929 18.203 5.65718C18.3052 5.50508 18.438 5.38274 18.6014 5.29015C18.7649 5.19095 18.9692 5.14135 19.2144 5.14135C19.4596 5.14135 19.6639 5.19095 19.8273 5.29015C19.9976 5.38274 20.1304 5.50508 20.2258 5.65718C20.3279 5.80929 20.3994 5.98454 20.4403 6.18294C20.4812 6.38133 20.5016 6.58304 20.5016 6.78805C20.5016 6.99306 20.4812 7.19476 20.4403 7.39316C20.3994 7.58494 20.3279 7.76019 20.2258 7.91891C20.1304 8.07101 19.9976 8.19336 19.8273 8.28594C19.6639 8.37853 19.4596 8.42482 19.2144 8.42482C18.9692 8.42482 18.7649 8.37853 18.6014 8.28594C18.438 8.19336 18.3052 8.07101 18.203 7.91891C18.1077 7.76019 18.0396 7.58494 17.9987 7.39316C17.9578 7.19476 17.9374 6.99306 17.9374 6.78805ZM16.4867 6.78805C16.4867 7.19807 16.5514 7.56841 16.6808 7.89907C16.8102 8.22973 16.9941 8.5141 17.2325 8.75217C17.4709 8.98364 17.7569 9.16219 18.0906 9.28784C18.4244 9.4135 18.7989 9.47632 19.2144 9.47632C19.6298 9.47632 20.0044 9.4135 20.3381 9.28784C20.6787 9.16219 20.9681 8.98364 21.2065 8.75217C21.4449 8.5141 21.6287 8.22973 21.7581 7.89907C21.8875 7.56841 21.9522 7.19807 21.9522 6.78805C21.9522 6.37803 21.8875 6.00769 21.7581 5.67702C21.6287 5.33975 21.4449 5.05538 21.2065 4.82392C20.9681 4.58584 20.6787 4.40398 20.3381 4.27833C20.0044 4.14606 19.6298 4.07993 19.2144 4.07993C18.7989 4.07993 18.4244 4.14606 18.0906 4.27833C17.7569 4.40398 17.4709 4.58584 17.2325 4.82392C16.9941 5.05538 16.8102 5.33975 16.6808 5.67702C16.5514 6.00769 16.4867 6.37803 16.4867 6.78805Z" fill="#683BF6"/>
<path d="M25.5618 8.42482C25.3302 8.42482 25.1327 8.37853 24.9693 8.28594C24.8058 8.19336 24.673 8.07432 24.5709 7.92883C24.4755 7.77672 24.404 7.60147 24.3563 7.40308C24.3155 7.20468 24.295 7.00298 24.295 6.79797C24.295 6.58634 24.3155 6.38133 24.3563 6.18294C24.3972 5.98454 24.4653 5.80929 24.5606 5.65718C24.6628 5.50508 24.7922 5.38274 24.9489 5.29015C25.1123 5.19095 25.3132 5.14135 25.5516 5.14135C25.7832 5.14135 25.9773 5.19095 26.1339 5.29015C26.2974 5.38274 26.4302 5.50839 26.5323 5.6671C26.6345 5.81921 26.706 5.99446 26.7469 6.19286C26.7945 6.39125 26.8184 6.59296 26.8184 6.79797C26.8184 7.00298 26.7979 7.20468 26.7571 7.40308C26.7162 7.60147 26.6447 7.77672 26.5425 7.92883C26.4472 8.07432 26.3178 8.19336 26.1543 8.28594C25.9977 8.37853 25.8002 8.42482 25.5618 8.42482ZM22.8955 4.21881V11.1429H24.3461V8.71249H24.3666C24.5436 8.9638 24.7684 9.15558 25.0408 9.28784C25.32 9.4135 25.6231 9.47632 25.95 9.47632C26.3382 9.47632 26.6753 9.40357 26.9614 9.25808C27.2542 9.11259 27.496 8.9175 27.6867 8.67281C27.8842 8.42812 28.0307 8.14706 28.126 7.82963C28.2214 7.51219 28.269 7.18153 28.269 6.83764C28.269 6.47392 28.2214 6.12672 28.126 5.79606C28.0307 5.45879 27.8842 5.1645 27.6867 4.9132C27.4892 4.66189 27.2406 4.46019 26.941 4.30809C26.6413 4.15598 26.2837 4.07993 25.8683 4.07993C25.5414 4.07993 25.2417 4.14276 24.9693 4.26841C24.6969 4.39406 24.4721 4.59576 24.295 4.87352H24.2746V4.21881H22.8955Z" fill="#683BF6"/>
<path d="M29.1407 4.21881V9.34736H30.5914V7.03604C30.5914 6.80458 30.6152 6.58965 30.6629 6.39125C30.7106 6.19286 30.7889 6.02091 30.8979 5.87542C31.0136 5.72332 31.1635 5.60428 31.3474 5.51831C31.5313 5.43233 31.756 5.38935 32.0216 5.38935C32.1102 5.38935 32.2021 5.39596 32.2974 5.40919C32.3928 5.4158 32.4745 5.42572 32.5426 5.43895V4.12953C32.4268 4.09646 32.3213 4.07993 32.2259 4.07993C32.042 4.07993 31.865 4.10638 31.6947 4.15929C31.5244 4.21219 31.3644 4.28825 31.2146 4.38745C31.0647 4.48003 30.9319 4.59576 30.8161 4.73464C30.7004 4.8669 30.6084 5.01239 30.5403 5.17111H30.5199V4.21881H29.1407Z" fill="#683BF6"/>
<path d="M33.0501 5.79606C33.0705 5.4654 33.1556 5.19095 33.3055 4.97272C33.4553 4.75448 33.646 4.57923 33.8776 4.44696C34.1091 4.3147 34.3679 4.22212 34.654 4.16921C34.9468 4.10969 35.2397 4.07993 35.5325 4.07993C35.7981 4.07993 36.0672 4.09977 36.3396 4.13945C36.612 4.17252 36.8606 4.24195 37.0854 4.34777C37.3101 4.45358 37.494 4.60238 37.637 4.79416C37.78 4.97933 37.8515 5.22732 37.8515 5.53815V8.20658C37.8515 8.43804 37.8652 8.65959 37.8924 8.87121C37.9197 9.08283 37.9673 9.24155 38.0354 9.34736H36.5643C36.5371 9.268 36.5133 9.18865 36.4928 9.10929C36.4792 9.02332 36.469 8.93734 36.4622 8.85137C36.2306 9.08283 35.9582 9.24486 35.6449 9.33744C35.3316 9.43003 35.0115 9.47632 34.6846 9.47632C34.4326 9.47632 34.1977 9.44656 33.9797 9.38704C33.7618 9.32752 33.5711 9.23494 33.4076 9.10929C33.2442 8.98364 33.1148 8.82492 33.0194 8.63313C32.9309 8.44135 32.8866 8.21319 32.8866 7.94867C32.8866 7.65768 32.9377 7.41961 33.0399 7.23444C33.1488 7.04265 33.285 6.89055 33.4485 6.77813C33.6188 6.6657 33.8095 6.58304 34.0206 6.53013C34.2385 6.47061 34.4565 6.42432 34.6744 6.39125C34.8923 6.35819 35.1069 6.33173 35.318 6.31189C35.5291 6.29205 35.7164 6.26229 35.8799 6.22261C36.0433 6.18294 36.1727 6.12672 36.2681 6.05398C36.3634 5.97462 36.4077 5.86219 36.4009 5.7167C36.4009 5.5646 36.3736 5.44556 36.3192 5.35959C36.2715 5.267 36.2034 5.19757 36.1148 5.15127C36.0331 5.09837 35.9344 5.0653 35.8186 5.05207C35.7096 5.03223 35.5904 5.02232 35.461 5.02232C35.175 5.02232 34.9502 5.08183 34.7868 5.20087C34.6233 5.31991 34.528 5.51831 34.5007 5.79606H33.0501ZM36.4009 6.83764C36.3396 6.89055 36.2613 6.93354 36.1659 6.9666C36.0774 6.99306 35.9786 7.0162 35.8697 7.03604C35.7675 7.05588 35.6585 7.07241 35.5428 7.08564C35.427 7.09887 35.3112 7.1154 35.1954 7.13524C35.0864 7.15508 34.9775 7.18153 34.8685 7.2146C34.7663 7.24766 34.6744 7.29396 34.5927 7.35348C34.5178 7.40638 34.4565 7.47582 34.4088 7.56179C34.3611 7.64776 34.3373 7.75688 34.3373 7.88915C34.3373 8.0148 34.3611 8.12061 34.4088 8.20658C34.4565 8.29255 34.5212 8.36199 34.6029 8.4149C34.6846 8.46119 34.78 8.49426 34.8889 8.5141C34.9979 8.53394 35.1103 8.54386 35.2261 8.54386C35.5121 8.54386 35.7334 8.49756 35.8901 8.40498C36.0467 8.31239 36.1625 8.20327 36.2374 8.07762C36.3124 7.94536 36.3566 7.8131 36.3702 7.68083C36.3907 7.54857 36.4009 7.44275 36.4009 7.3634V6.83764Z" fill="#683BF6"/>
<path d="M3.87286 6.29743H1.47439C1.48131 6.19661 1.50207 6.08235 1.53668 5.95464C1.57822 5.82694 1.64398 5.70595 1.73396 5.59169C1.83087 5.47743 1.95547 5.38333 2.10775 5.30939C2.26696 5.22873 2.46423 5.18841 2.69958 5.18841C3.05952 5.18841 3.32602 5.2825 3.49907 5.4707C3.67904 5.6589 3.80364 5.93448 3.87286 6.29743ZM1.47439 7.20482H5.34725C5.37493 6.80154 5.34032 6.41506 5.24342 6.04538C5.14651 5.67571 4.9873 5.34636 4.7658 5.05734C4.55122 4.76832 4.27434 4.53979 3.93516 4.37176C3.59598 4.197 3.19796 4.10962 2.74111 4.10962C2.33271 4.10962 1.95893 4.1802 1.61975 4.32135C1.28749 4.4625 1.00023 4.65742 0.757959 4.90611C0.515689 5.14808 0.328795 5.4371 0.197277 5.77317C0.065759 6.10924 0 6.47219 0 6.86203C0 7.26531 0.062298 7.63499 0.186894 7.97106C0.318412 8.30713 0.501845 8.59615 0.737193 8.83812C0.972541 9.08009 1.2598 9.26829 1.59898 9.40272C1.93816 9.53042 2.31887 9.59428 2.74111 9.59428C3.35025 9.59428 3.8694 9.45985 4.29856 9.19099C4.72773 8.92214 5.04614 8.47516 5.2538 7.85008H3.95592C3.90747 8.01139 3.77595 8.16598 3.56137 8.31385C3.34679 8.455 3.09067 8.52558 2.79303 8.52558C2.37771 8.52558 2.0593 8.42139 1.83779 8.21303C1.61629 8.00467 1.49515 7.6686 1.47439 7.20482Z" fill="#683BF6"/>
<path d="M6.26322 2.2646V9.46321H7.73761V2.2646H6.26322Z" fill="#683BF6"/>
<path fill-rule="evenodd" clip-rule="evenodd" d="M16.7806 1.30017H14.9928V0.142853H17.9725V3.03615H16.7806V1.30017Z" fill="#683BF6"/>
<path d="M37.2534 3.21929V4.02681H37.4778V3.21929H37.7835V3.03615H36.9476V3.21929H37.2534Z" fill="#683BF6"/>
<path d="M37.9012 3.03615V4.02681H38.1112V3.33168H38.1141L38.3641 4.02681H38.537L38.7871 3.32474H38.79V4.02681H39V3.03615H38.6842L38.4584 3.7174H38.4556L38.217 3.03615H37.9012Z" fill="#683BF6"/>
</svg>
