<svg width="39" height="39" viewBox="0 0 39 39" fill="none" xmlns="http://www.w3.org/2000/svg">
<path d="M20.7 5.79285C19.9889 5.25952 19.0111 5.25952 18.3 5.79285L7.63334 13.7929C7.12973 14.1706 6.83334 14.7633 6.83334 15.3929V31.3929C6.83334 32.4974 7.72877 33.3929 8.83334 33.3929H30.1667C31.2712 33.3929 32.1667 32.4974 32.1667 31.3929V15.3929C32.1667 14.7633 31.8703 14.1706 31.3667 13.7929L20.7 5.79285ZM20.2917 19.9345C20.2917 20.5433 20.0641 21.0976 19.6891 21.5174C18.9532 22.3412 17.9167 23.205 17.9167 24.3095V27.8512C17.9167 28.2884 17.5622 28.6429 17.125 28.6429C16.6878 28.6429 16.3333 28.2884 16.3333 27.8512V24.3095C16.3333 23.205 15.2968 22.3412 14.5609 21.5174C14.186 21.0976 13.9583 20.5433 13.9583 19.9345V15.9762C13.9583 15.539 14.3128 15.1845 14.75 15.1845C15.1872 15.1845 15.5417 15.539 15.5417 15.9762V19.5387C15.5417 19.7573 15.7189 19.9345 15.9375 19.9345C16.1561 19.9345 16.3333 19.7573 16.3333 19.5387V15.9762C16.3333 15.539 16.6878 15.1845 17.125 15.1845C17.5622 15.1845 17.9167 15.539 17.9167 15.9762V19.5387C17.9167 19.7573 18.0939 19.9345 18.3125 19.9345C18.5311 19.9345 18.7083 19.7573 18.7083 19.5387V15.9762C18.7083 15.539 19.0628 15.1845 19.5 15.1845C19.9372 15.1845 20.2917 15.539 20.2917 15.9762V19.9345ZM24.25 27.8512C24.25 28.2884 23.8956 28.6429 23.4583 28.6429C23.0211 28.6429 22.6667 28.2884 22.6667 27.8512V23.8929C22.6667 23.4556 22.3122 23.1012 21.875 23.1012C21.4378 23.1012 21.0833 22.7467 21.0833 22.3095V18.3512C21.0833 17.3068 21.5958 16.3762 22.3816 15.7986C23.2716 15.1443 24.25 16.08 24.25 17.1845V27.8512Z" fill="#493CDF"/>
</svg>
