<svg width="35" height="35" viewBox="0 0 35 35" fill="none" xmlns="http://www.w3.org/2000/svg">
<path d="M7.26367 13.7627C7.26367 13.1932 7.72125 12.7314 8.2865 12.7314H13.7492C14.3158 12.7314 14.7734 13.1932 14.7734 13.7627C14.774 13.8978 14.7479 14.0316 14.6968 14.1566C14.6456 14.2816 14.5703 14.3953 14.4752 14.4912C14.3801 14.5871 14.267 14.6633 14.1424 14.7155C14.0179 14.7677 13.8842 14.7949 13.7492 14.7954H8.2865C8.01397 14.7939 7.75318 14.6843 7.5614 14.4907C7.36962 14.2971 7.26254 14.0352 7.26367 13.7627Z" fill="#EC9109"/>
<path fill-rule="evenodd" clip-rule="evenodd" d="M30.3497 14.3152C30.2619 14.3095 30.1655 14.3095 30.0664 14.3095H26.1379C22.9207 14.3095 20.1667 16.7689 20.1667 19.9762C20.1667 23.1835 22.9207 25.6429 26.1379 25.6429H30.0664C30.1655 25.6429 30.2619 25.6429 30.3497 25.6372C31.6573 25.5579 32.8133 24.5648 32.911 23.1764C32.9167 23.0858 32.9167 22.988 32.9167 22.8974V17.055C32.9167 16.9644 32.9167 16.8666 32.911 16.7759C32.8133 15.3876 31.6573 14.3959 30.3497 14.3152ZM25.7923 21.4878C26.6196 21.4878 27.2911 20.8106 27.2911 19.9762C27.2911 19.1404 26.6196 18.4646 25.7923 18.4646C24.9635 18.4646 24.2906 19.1418 24.2906 19.9762C24.2906 20.812 24.9635 21.4878 25.7923 21.4878Z" fill="#EC9109"/>
<path d="M30.2817 14.3124C30.2817 12.6393 30.2193 10.8444 29.1512 9.55944C29.0468 9.43356 28.9366 9.31255 28.8211 9.19677C27.76 8.1371 26.4156 7.66677 24.7553 7.44294C23.1403 7.22619 21.079 7.22619 18.4752 7.22619H15.4832C12.8793 7.22619 10.8167 7.22619 9.20167 7.44294C7.54134 7.66677 6.19692 8.1371 5.13584 9.19677C4.07617 10.2579 3.60584 11.6023 3.38201 13.2626C3.16667 14.8776 3.16667 16.9389 3.16667 19.5427V19.7014C3.16667 22.3052 3.16667 24.3679 3.38342 25.9814C3.60726 27.6418 4.07759 28.9862 5.13726 30.0473C6.19834 31.1069 7.54276 31.5773 9.20309 31.8011C10.8181 32.0179 12.8793 32.0179 15.4832 32.0179H18.4752C21.079 32.0179 23.1417 32.0179 24.7553 31.8011C26.4156 31.5773 27.76 31.1069 28.8211 30.0473C29.1033 29.7642 29.3533 29.4506 29.5663 29.1123C30.2038 28.0923 30.2803 26.8428 30.2803 25.6414L30.0678 25.6429H26.1379C22.9207 25.6429 20.1667 23.1835 20.1667 19.9762C20.1667 16.7689 22.9207 14.3095 26.1379 14.3095H30.0663C30.14 14.3095 30.2137 14.3095 30.2817 14.3124Z" fill="#493CDF"/>
<path d="M14.6431 3.78652L11.6667 5.79819L9.21159 7.44152C10.8238 7.22619 12.8836 7.22619 15.4818 7.22619H18.4752C21.079 7.22619 23.1417 7.22619 24.7553 7.44294C25.0811 7.48544 25.3928 7.53927 25.6931 7.60444L23 5.80952L20.0066 3.78652C19.2121 3.25803 18.2791 2.97608 17.3248 2.97608C16.3706 2.97608 15.4376 3.25803 14.6431 3.78652Z" fill="#EC9109"/>
</svg>
