<svg width="32" height="25" viewBox="0 0 32 25" fill="none" xmlns="http://www.w3.org/2000/svg">
<path d="M20.65 6.47619L22.5 8.32619L12.0167 18.8095L10.1667 16.9595L20.65 6.47619ZM4.00001 0.309521H28.6667C30.3779 0.309521 31.75 1.6816 31.75 3.39285V9.55952C30.9323 9.55952 30.148 9.88437 29.5698 10.4626C28.9915 11.0408 28.6667 11.8251 28.6667 12.6429C28.6667 13.4606 28.9915 14.2449 29.5698 14.8231C30.148 15.4013 30.9323 15.7262 31.75 15.7262V21.8929C31.75 23.6041 30.3779 24.9762 28.6667 24.9762H4.00001C3.18225 24.9762 2.398 24.6513 1.81976 24.0731C1.24152 23.4949 0.916672 22.7106 0.916672 21.8929V15.7262C2.62792 15.7262 4.00001 14.3541 4.00001 12.6429C4.00001 11.8251 3.67515 11.0408 3.09692 10.4626C2.51868 9.88437 1.73442 9.55952 0.916672 9.55952V3.39285C0.916672 2.5751 1.24152 1.79085 1.81976 1.21261C2.398 0.634371 3.18225 0.309521 4.00001 0.309521ZM4.00001 3.39285V7.30869C4.93684 7.84889 5.71489 8.62629 6.25586 9.56268C6.79683 10.4991 7.08164 11.5614 7.08164 12.6429C7.08164 13.7243 6.79683 14.7866 6.25586 15.723C5.71489 16.6594 4.93684 17.4368 4.00001 17.977V21.8929H28.6667V17.977C27.7298 17.4368 26.9518 16.6594 26.4108 15.723C25.8699 14.7866 25.585 13.7243 25.585 12.6429C25.585 11.5614 25.8699 10.4991 26.4108 9.56268C26.9518 8.62629 27.7298 7.84889 28.6667 7.30869V3.39285H4.00001ZM12.4792 6.47619C13.7588 6.47619 14.7917 7.5091 14.7917 8.78869C14.7917 10.0683 13.7588 11.1012 12.4792 11.1012C11.1996 11.1012 10.1667 10.0683 10.1667 8.78869C10.1667 7.5091 11.1996 6.47619 12.4792 6.47619ZM20.1875 14.1845C21.4671 14.1845 22.5 15.2174 22.5 16.497C22.5 17.7766 21.4671 18.8095 20.1875 18.8095C18.9079 18.8095 17.875 17.7766 17.875 16.497C17.875 15.2174 18.9079 14.1845 20.1875 14.1845Z" fill="#5F3EF6"/>
</svg>
